<svg width="230" height="40" viewBox="0 0 230 40" fill="none" xmlns="http://www.w3.org/2000/svg">
<g clip-path="url(#clip0_701_2)">
<rect x="-9.15527e-05" y="0.0027771" width="230.001" height="40.0014" rx="8" fill="url(#paint0_linear_701_2)"/>
<g filter="url(#filter0_d_701_2)">
<path d="M20.6079 6.08218C15.7768 6.56204 11.5823 9.45986 9.41018 13.8222C8.68613 15.2742 8.19928 16.9444 8.03699 18.5273L7.99954 18.8887H9.24789C9.93448 18.8887 10.4962 18.87 10.5025 18.8389C10.5711 17.8231 11.0205 16.2277 11.5636 15.0873C13.4923 11.049 17.5057 8.51262 21.9499 8.51262C23.8349 8.51262 25.4327 8.8803 27.0681 9.69044C28.9281 10.6128 30.4199 11.9215 31.5621 13.6228C32.0677 14.3768 32.7668 15.7541 32.6794 15.8289C32.6482 15.86 32.1489 16.0096 31.5746 16.1591L30.526 16.4396L30.2514 15.9036C29.3651 14.1338 27.8858 12.6506 26.1381 11.7719C25.5077 11.4541 24.8585 11.211 24.7586 11.2484C24.7149 11.2609 24.6588 11.4104 24.64 11.5787C24.6151 11.7407 24.5464 12.1707 24.4778 12.5322C24.4153 12.8936 24.3467 13.2925 24.328 13.4171L24.2843 13.6477L24.8148 13.897C26.6374 14.7445 27.9544 16.3149 28.5099 18.2967C28.6722 18.87 28.6909 19.0009 28.6909 20.0104C28.6909 21.02 28.6722 21.1509 28.5099 21.7242C28.1791 22.8958 27.5924 23.9303 26.7872 24.7404C26.3253 25.2078 25.645 25.7126 25.1519 25.9681C24.9833 26.0491 24.8523 26.1551 24.8523 26.1987C24.8585 26.3046 25.4515 28.4858 25.4952 28.5232C25.5513 28.5793 26.6062 28.0184 27.2241 27.6071C27.9981 27.0899 29.0717 26.018 29.5898 25.2452C30.3138 24.1609 30.7632 23.1202 31.0441 21.8738C31.1627 21.3254 31.1876 21.0449 31.1876 20.0291C31.1876 19.0196 31.2001 18.8264 31.2813 18.8077C32.0428 18.5896 33.3598 18.2655 33.3847 18.2842C33.4284 18.3341 33.4971 19.3748 33.4971 20.0104C33.4971 20.8704 33.4159 21.7117 33.2786 22.3162C33.2162 22.6029 33.1663 22.846 33.1725 22.8522C33.1788 22.8646 33.7031 23.0516 34.3335 23.2822C35.2073 23.6 35.4945 23.681 35.5319 23.6187C35.6318 23.4504 35.9002 21.8052 35.9688 20.9265C36.1124 18.9635 35.7691 16.7075 35.0513 14.9315C33.029 9.92726 28.6098 6.59943 23.2918 6.08218C22.2245 5.97624 21.6627 5.97624 20.6079 6.08218Z" fill="#00D845"/>
<path d="M20.92 10.8309C20.4644 10.8745 19.447 11.1176 18.9289 11.2983C16.376 12.1957 14.2726 14.246 13.3238 16.7699C12.5873 18.7205 12.5623 21.1696 13.2614 23.0828L13.4174 23.5066L12.8432 23.8368C11.6947 24.5037 11.4887 24.6221 11.445 24.6221C11.3889 24.6221 11.1142 23.9303 10.9395 23.3445C10.7397 22.6466 10.5275 21.637 10.5025 21.1758C10.4963 21.1509 9.93455 21.1322 9.24795 21.1322H7.9996L8.03705 21.4874C8.36787 24.7093 9.8534 27.7505 12.219 30.05C17.7679 35.4344 26.625 35.3035 32.0366 29.7571C32.7481 29.0218 33.4535 28.1182 33.9528 27.2955C34.3835 26.5789 34.7143 25.9058 34.6644 25.856C34.6394 25.831 34.3398 25.7126 33.9965 25.588C33.6532 25.4634 33.1913 25.2951 32.9666 25.2203C32.7419 25.1393 32.5172 25.0521 32.4673 25.0334C32.3986 25.0084 32.3112 25.1144 32.1365 25.4509C31.0878 27.495 29.1279 29.3521 26.9121 30.4115C25.0209 31.3089 23.0984 31.6454 20.8202 31.4647C18.5919 31.2902 16.1076 30.1934 14.3038 28.5918C13.7919 28.1368 13.0492 27.3392 12.7683 26.9403C12.6747 26.8032 12.6247 26.8406 14.0728 25.9993L14.6159 25.6815L15.3836 26.448C16.7568 27.8253 18.2298 28.6354 20.1148 29.0592C20.6704 29.1776 20.9388 29.2025 21.9624 29.2025C22.6178 29.2025 23.1733 29.1838 23.192 29.1651C23.217 29.1464 23.1171 28.7102 22.9798 28.1992C22.8425 27.6882 22.6989 27.1584 22.6615 27.0151L22.5928 26.7596L21.7127 26.7222C20.0524 26.6537 18.7354 26.1302 17.4995 25.0458C17.2936 24.8651 17.0626 24.6408 16.994 24.5535L16.8691 24.3915L18.2486 23.5938L19.6342 22.8024L21.0823 24.3354L22.7489 23.9926L24.4154 23.6561L26.6624 21.4126L26.4627 20.6773C26.3379 20.2099 26.238 19.9482 26.1881 19.9482C26.1381 19.9482 25.6325 20.0728 25.0583 20.2286L24.0097 20.5153L23.5728 20.939C23.0984 21.4002 23.1671 21.3815 22.1372 21.475L21.7627 21.5124L21.3133 21.0699C21.0636 20.8331 20.8576 20.6212 20.8576 20.6087C20.8576 20.59 20.7889 20.3283 20.7078 20.0167L20.558 19.4496L20.9637 18.9074C21.1884 18.6021 21.3819 18.3528 21.3944 18.3403C21.4006 18.3279 21.669 18.2468 21.9936 18.1658L22.5741 18.0163L23.3668 17.2248C23.81 16.7886 24.1657 16.4022 24.1657 16.3648C24.1657 16.3274 23.9285 16.0657 23.6414 15.779L23.1171 15.2618L21.6004 15.6731L20.0774 16.0844L19.7653 16.4084C19.5968 16.5892 19.241 16.9755 18.9851 17.2684C18.7292 17.5551 18.4046 17.9228 18.2673 18.0786C17.7367 18.6768 17.7555 18.4961 18.0863 19.6303C18.2423 20.185 18.3671 20.6524 18.3547 20.6586C18.3235 20.6835 17.0314 21.4376 16.2325 21.8863C15.9329 22.0545 15.6645 22.1916 15.627 22.1916C15.5958 22.1916 15.5022 21.9299 15.421 21.6121C15.29 21.1197 15.2712 20.8954 15.2712 19.9793C15.2775 19.0134 15.29 18.8638 15.4523 18.2967C15.7893 17.1002 16.3698 16.0968 17.2062 15.2618C18.3547 14.1151 19.8652 13.4109 21.4006 13.305C22.0498 13.2551 21.9998 13.305 22.106 12.6257C22.1434 12.3826 22.1996 12.0773 22.2308 11.9402C22.262 11.8031 22.2995 11.5787 22.3182 11.4416C22.3431 11.3045 22.3744 11.0989 22.3931 10.9867L22.4305 10.7873L21.7876 10.7997C21.4318 10.7997 21.0386 10.8184 20.92 10.8309Z" fill="#00D845"/>
</g>
<g filter="url(#filter1_d_701_2)">
<path d="M44.404 26.5035H42.4239L46.8731 14.1398H49.0283L53.4775 26.5035H51.4974L48.002 16.3856H47.9054L44.404 26.5035ZM44.736 21.6619H51.1593V23.2315H44.736V21.6619ZM61.8885 17.2307L58.5259 26.5035H56.5941L53.2255 17.2307H55.1633L57.5117 24.3664H57.6083L59.9506 17.2307H61.8885ZM66.0177 26.7087C65.4301 26.7087 64.8989 26.6001 64.424 26.3827C63.9491 26.1614 63.5728 25.8414 63.2951 25.4229C63.0214 25.0043 62.8846 24.4912 62.8846 23.8834C62.8846 23.3602 62.9852 22.9296 63.1864 22.5915C63.3876 22.2535 63.6593 21.9858 64.0014 21.7886C64.3435 21.5914 64.7258 21.4425 65.1484 21.3419C65.571 21.2413 66.0016 21.1648 66.4403 21.1125C66.9957 21.0481 67.4465 20.9958 67.7926 20.9555C68.1387 20.9113 68.3902 20.8408 68.5472 20.7442C68.7042 20.6477 68.7826 20.4907 68.7826 20.2734V20.2311C68.7826 19.7039 68.6337 19.2954 68.3359 19.0056C68.0421 18.7158 67.6034 18.5709 67.0199 18.5709C66.4121 18.5709 65.9332 18.7058 65.5831 18.9754C65.237 19.241 64.9975 19.5369 64.8647 19.8629L63.1683 19.4765C63.3695 18.913 63.6633 18.4583 64.0497 18.1121C64.4401 17.762 64.8888 17.5084 65.3959 17.3515C65.903 17.1905 66.4363 17.11 66.9957 17.11C67.366 17.11 67.7584 17.1543 68.1729 17.2428C68.5915 17.3273 68.9819 17.4843 69.3441 17.7137C69.7103 17.9431 70.0102 18.2711 70.2436 18.6977C70.477 19.1203 70.5937 19.6697 70.5937 20.3458V26.5035H68.8309V25.2357H68.7585C68.6418 25.4691 68.4667 25.6985 68.2333 25.9239C67.9999 26.1493 67.7 26.3365 67.3338 26.4854C66.9675 26.6343 66.5289 26.7087 66.0177 26.7087ZM66.4101 25.2599C66.9092 25.2599 67.3358 25.1613 67.69 24.9641C68.0482 24.7669 68.3198 24.5093 68.5049 24.1913C68.6941 23.8694 68.7887 23.5253 68.7887 23.159V21.9637C68.7243 22.0281 68.5995 22.0885 68.4144 22.1448C68.2333 22.1971 68.026 22.2434 67.7926 22.2837C67.5592 22.3199 67.3318 22.3541 67.1104 22.3863C66.8891 22.4145 66.7039 22.4386 66.555 22.4587C66.2049 22.503 65.8849 22.5775 65.5951 22.6821C65.3094 22.7867 65.08 22.9377 64.9069 23.1349C64.7379 23.328 64.6534 23.5856 64.6534 23.9076C64.6534 24.3543 64.8184 24.6924 65.1484 24.9218C65.4784 25.1472 65.899 25.2599 66.4101 25.2599ZM72.9979 26.5035V17.2307H74.803V26.5035H72.9979ZM73.9095 15.8C73.5956 15.8 73.3259 15.6954 73.1006 15.4861C72.8792 15.2728 72.7685 15.0192 72.7685 14.7254C72.7685 14.4276 72.8792 14.1741 73.1006 13.9648C73.3259 13.7515 73.5956 13.6448 73.9095 13.6448C74.2234 13.6448 74.4911 13.7515 74.7124 13.9648C74.9378 14.1741 75.0505 14.4276 75.0505 14.7254C75.0505 15.0192 74.9378 15.2728 74.7124 15.4861C74.4911 15.6954 74.2234 15.8 73.9095 15.8ZM79.0364 14.1398V26.5035H77.2313V14.1398H79.0364ZM84.1632 26.7087C83.5756 26.7087 83.0444 26.6001 82.5695 26.3827C82.0946 26.1614 81.7183 25.8414 81.4406 25.4229C81.1669 25.0043 81.0301 24.4912 81.0301 23.8834C81.0301 23.3602 81.1307 22.9296 81.3319 22.5915C81.5331 22.2535 81.8048 21.9858 82.1469 21.7886C82.489 21.5914 82.8713 21.4425 83.2939 21.3419C83.7165 21.2413 84.1471 21.1648 84.5858 21.1125C85.1412 21.0481 85.592 20.9958 85.9381 20.9555C86.2842 20.9113 86.5357 20.8408 86.6927 20.7442C86.8497 20.6477 86.9281 20.4907 86.9281 20.2734V20.2311C86.9281 19.7039 86.7792 19.2954 86.4814 19.0056C86.1876 18.7158 85.7489 18.5709 85.1654 18.5709C84.5576 18.5709 84.0787 18.7058 83.7286 18.9754C83.3825 19.241 83.143 19.5369 83.0102 19.8629L81.3138 19.4765C81.515 18.913 81.8088 18.4583 82.1952 18.1121C82.5856 17.762 83.0343 17.5084 83.5414 17.3515C84.0485 17.1905 84.5818 17.11 85.1412 17.11C85.5115 17.11 85.9039 17.1543 86.3184 17.2428C86.737 17.3273 87.1274 17.4843 87.4896 17.7137C87.8558 17.9431 88.1557 18.2711 88.3891 18.6977C88.6225 19.1203 88.7392 19.6697 88.7392 20.3458V26.5035H86.9764V25.2357H86.904C86.7873 25.4691 86.6122 25.6985 86.3788 25.9239C86.1454 26.1493 85.8455 26.3365 85.4793 26.4854C85.113 26.6343 84.6744 26.7087 84.1632 26.7087ZM84.5556 25.2599C85.0547 25.2599 85.4813 25.1613 85.8355 24.9641C86.1937 24.7669 86.4653 24.5093 86.6504 24.1913C86.8396 23.8694 86.9342 23.5253 86.9342 23.159V21.9637C86.8698 22.0281 86.745 22.0885 86.5599 22.1448C86.3788 22.1971 86.1715 22.2434 85.9381 22.2837C85.7047 22.3199 85.4773 22.3541 85.2559 22.3863C85.0346 22.4145 84.8494 22.4386 84.7005 22.4587C84.3504 22.503 84.0304 22.5775 83.7406 22.6821C83.4549 22.7867 83.2255 22.9377 83.0524 23.1349C82.8834 23.328 82.7989 23.5856 82.7989 23.9076C82.7989 24.3543 82.9639 24.6924 83.2939 24.9218C83.6239 25.1472 84.0445 25.2599 84.5556 25.2599ZM91.2883 26.5035V14.1398H93.0934V18.7339H93.202C93.3067 18.5408 93.4576 18.3174 93.6548 18.0638C93.852 17.8103 94.1257 17.5889 94.4758 17.3998C94.826 17.2066 95.2888 17.11 95.8643 17.11C96.6129 17.11 97.281 17.2992 97.8686 17.6775C98.4562 18.0558 98.917 18.6011 99.251 19.3135C99.5891 20.0258 99.7581 20.8831 99.7581 21.8852C99.7581 22.8874 99.5911 23.7466 99.2571 24.463C98.923 25.1753 98.4642 25.7247 97.8806 26.1111C97.2971 26.4934 96.631 26.6846 95.8824 26.6846C95.319 26.6846 94.8582 26.59 94.5 26.4008C94.1458 26.2117 93.8681 25.9903 93.6669 25.7368C93.4656 25.4832 93.3107 25.2579 93.202 25.0606H93.0511V26.5035H91.2883ZM93.0571 21.8671C93.0571 22.5191 93.1517 23.0906 93.3409 23.5816C93.53 24.0726 93.8037 24.457 94.1619 24.7347C94.5201 25.0083 94.9588 25.1452 95.4779 25.1452C96.0172 25.1452 96.468 25.0023 96.8302 24.7165C97.1924 24.4268 97.4661 24.0344 97.6512 23.5393C97.8404 23.0443 97.935 22.4869 97.935 21.8671C97.935 21.2554 97.8424 20.706 97.6573 20.219C97.4762 19.7321 97.2025 19.3477 96.8363 19.066C96.474 18.7843 96.0213 18.6434 95.4779 18.6434C94.9547 18.6434 94.512 18.7782 94.1498 19.0479C93.7916 19.3175 93.52 19.6938 93.3348 20.1768C93.1497 20.6597 93.0571 21.2232 93.0571 21.8671ZM103.59 14.1398V26.5035H101.785V14.1398H103.59ZM110.015 26.6906C109.101 26.6906 108.314 26.4954 107.654 26.105C106.998 25.7106 106.491 25.1572 106.133 24.4449C105.779 23.7285 105.602 22.8894 105.602 21.9275C105.602 20.9777 105.779 20.1405 106.133 19.4161C106.491 18.6917 106.99 18.1262 107.63 17.7197C108.274 17.3133 109.027 17.11 109.888 17.11C110.411 17.11 110.918 17.1965 111.409 17.3696C111.9 17.5427 112.341 17.8143 112.731 18.1846C113.122 18.5548 113.43 19.0358 113.655 19.6274C113.881 20.215 113.993 20.9294 113.993 21.7705V22.4104H106.622V21.0582H112.224C112.224 20.5833 112.128 20.1627 111.935 19.7964C111.741 19.4262 111.47 19.1344 111.12 18.9211C110.774 18.7078 110.367 18.6011 109.9 18.6011C109.393 18.6011 108.95 18.7259 108.572 18.9754C108.198 19.2209 107.908 19.5429 107.703 19.9413C107.502 20.3357 107.401 20.7644 107.401 21.2272V22.2837C107.401 22.9035 107.51 23.4307 107.727 23.8653C107.948 24.3 108.256 24.632 108.651 24.8614C109.045 25.0868 109.506 25.1995 110.033 25.1995C110.375 25.1995 110.687 25.1512 110.969 25.0546C111.25 24.954 111.494 24.8051 111.699 24.6079C111.904 24.4107 112.061 24.1672 112.17 23.8774L113.879 24.1853C113.742 24.6884 113.496 25.1291 113.142 25.5074C112.792 25.8817 112.351 26.1735 111.82 26.3827C111.293 26.588 110.691 26.6906 110.015 26.6906ZM124.401 26.6906C123.532 26.6906 122.773 26.4914 122.125 26.093C121.477 25.6945 120.974 25.1371 120.616 24.4207C120.258 23.7044 120.078 22.8672 120.078 21.9094C120.078 20.9475 120.258 20.1063 120.616 19.3859C120.974 18.6655 121.477 18.1061 122.125 17.7077C122.773 17.3092 123.532 17.11 124.401 17.11C125.27 17.11 126.029 17.3092 126.677 17.7077C127.325 18.1061 127.828 18.6655 128.186 19.3859C128.544 20.1063 128.723 20.9475 128.723 21.9094C128.723 22.8672 128.544 23.7044 128.186 24.4207C127.828 25.1371 127.325 25.6945 126.677 26.093C126.029 26.4914 125.27 26.6906 124.401 26.6906ZM124.407 25.1753C124.97 25.1753 125.437 25.0264 125.807 24.7286C126.178 24.4308 126.451 24.0344 126.629 23.5393C126.81 23.0443 126.9 22.499 126.9 21.9033C126.9 21.3117 126.81 20.7684 126.629 20.2734C126.451 19.7743 126.178 19.3739 125.807 19.072C125.437 18.7702 124.97 18.6192 124.407 18.6192C123.839 18.6192 123.369 18.7702 122.994 19.072C122.624 19.3739 122.348 19.7743 122.167 20.2734C121.99 20.7684 121.902 21.3117 121.902 21.9033C121.902 22.499 121.99 23.0443 122.167 23.5393C122.348 24.0344 122.624 24.4308 122.994 24.7286C123.369 25.0264 123.839 25.1753 124.407 25.1753ZM132.543 20.9978V26.5035H130.738V17.2307H132.471V18.74H132.585C132.799 18.249 133.133 17.8546 133.588 17.5567C134.046 17.2589 134.624 17.11 135.32 17.11C135.952 17.11 136.505 17.2428 136.98 17.5084C137.455 17.77 137.823 18.1604 138.085 18.6796C138.347 19.1988 138.477 19.8407 138.477 20.6054V26.5035H136.672V20.8227C136.672 20.1506 136.497 19.6254 136.147 19.2471C135.797 18.8647 135.316 18.6736 134.704 18.6736C134.286 18.6736 133.914 18.7641 133.588 18.9452C133.266 19.1263 133.01 19.392 132.821 19.7421C132.636 20.0882 132.543 20.5068 132.543 20.9978Z" fill="#E8E8E8"/>
<path d="M144.937 14.1398H148.638L151.777 21.7947H151.922L155.061 14.1398H158.762V26.5035H155.852V18.909H155.749L152.779 26.425H150.92L147.949 18.8668H147.847V26.5035H144.937V14.1398ZM164.954 26.6785C163.98 26.6785 163.143 26.4793 162.443 26.0809C161.746 25.6784 161.209 25.119 160.831 24.4026C160.456 23.6822 160.269 22.8471 160.269 21.8973C160.269 20.9435 160.456 20.1084 160.831 19.392C161.209 18.6716 161.746 18.1121 162.443 17.7137C163.143 17.3112 163.98 17.11 164.954 17.11C165.928 17.11 166.763 17.3112 167.459 17.7137C168.16 18.1121 168.697 18.6716 169.071 19.392C169.449 20.1084 169.639 20.9435 169.639 21.8973C169.639 22.8471 169.449 23.6822 169.071 24.4026C168.697 25.119 168.16 25.6784 167.459 26.0809C166.763 26.4793 165.928 26.6785 164.954 26.6785ZM164.972 24.4509C165.326 24.4509 165.626 24.3423 165.872 24.1249C166.117 23.9076 166.304 23.6057 166.433 23.2194C166.566 22.833 166.632 22.3863 166.632 21.8792C166.632 21.364 166.566 20.9133 166.433 20.5269C166.304 20.1405 166.117 19.8387 165.872 19.6214C165.626 19.404 165.326 19.2954 164.972 19.2954C164.606 19.2954 164.296 19.404 164.042 19.6214C163.793 19.8387 163.602 20.1405 163.469 20.5269C163.34 20.9133 163.276 21.364 163.276 21.8792C163.276 22.3863 163.34 22.833 163.469 23.2194C163.602 23.6057 163.793 23.9076 164.042 24.1249C164.296 24.3423 164.606 24.4509 164.972 24.4509ZM174.538 26.6363C173.853 26.6363 173.232 26.4592 172.672 26.105C172.113 25.7509 171.666 25.2196 171.332 24.5113C170.998 23.803 170.831 22.9236 170.831 21.8731C170.831 20.7825 171.004 19.885 171.35 19.1807C171.696 18.4764 172.149 17.9552 172.708 17.6171C173.272 17.279 173.878 17.11 174.526 17.11C175.012 17.11 175.429 17.1945 175.775 17.3636C176.121 17.5286 176.407 17.7419 176.632 18.0035C176.858 18.2651 177.029 18.5367 177.146 18.8185H177.206V14.1398H180.158V26.5035H177.236V25.0003H177.146C177.021 25.286 176.844 25.5537 176.614 25.8032C176.385 26.0527 176.097 26.2539 175.751 26.4069C175.409 26.5598 175.004 26.6363 174.538 26.6363ZM175.564 24.3362C175.922 24.3362 176.228 24.2356 176.481 24.0344C176.735 23.8291 176.93 23.5414 177.067 23.1711C177.204 22.8008 177.272 22.3662 177.272 21.8671C177.272 21.36 177.204 20.9233 177.067 20.5571C176.934 20.1909 176.739 19.9091 176.481 19.7119C176.228 19.5147 175.922 19.4161 175.564 19.4161C175.198 19.4161 174.888 19.5167 174.634 19.718C174.381 19.9192 174.187 20.2029 174.055 20.5692C173.926 20.9354 173.861 21.3681 173.861 21.8671C173.861 22.3662 173.928 22.8008 174.061 23.1711C174.193 23.5414 174.385 23.8291 174.634 24.0344C174.888 24.2356 175.198 24.3362 175.564 24.3362ZM182.025 26.5035V17.2307H184.892V18.9211H184.989C185.158 18.3093 185.434 17.8546 185.816 17.5567C186.198 17.2549 186.643 17.104 187.15 17.104C187.287 17.104 187.428 17.114 187.573 17.1342C187.718 17.1503 187.853 17.1764 187.977 17.2126V19.7783C187.836 19.73 187.651 19.6918 187.422 19.6636C187.197 19.6355 186.995 19.6214 186.818 19.6214C186.468 19.6214 186.152 19.6999 185.87 19.8568C185.593 20.0097 185.373 20.2251 185.212 20.5028C185.055 20.7764 184.977 21.0984 184.977 21.4687V26.5035H182.025ZM189.18 26.5035V17.2307H192.132V26.5035H189.18ZM190.659 16.1501C190.245 16.1501 189.888 16.0133 189.591 15.7396C189.293 15.4619 189.144 15.1279 189.144 14.7375C189.144 14.3511 189.293 14.0211 189.591 13.7474C189.888 13.4697 190.245 13.3309 190.659 13.3309C191.078 13.3309 191.434 13.4697 191.728 13.7474C192.026 14.0211 192.174 14.3511 192.174 14.7375C192.174 15.1279 192.026 15.4619 191.728 15.7396C191.434 16.0133 191.078 16.1501 190.659 16.1501ZM196.963 21.2151V26.5035H194.011V17.2307H196.818V18.9332H196.921C197.126 18.3657 197.476 17.921 197.971 17.599C198.466 17.273 199.056 17.11 199.74 17.11C200.392 17.11 200.958 17.2569 201.437 17.5507C201.92 17.8405 202.294 18.247 202.56 18.7702C202.829 19.2893 202.962 19.8971 202.958 20.5933V26.5035H200.006V21.1729C200.01 20.6577 199.879 20.2553 199.613 19.9655C199.352 19.6757 198.988 19.5308 198.521 19.5308C198.211 19.5308 197.937 19.5992 197.7 19.7361C197.466 19.8689 197.285 20.0601 197.156 20.3096C197.032 20.5591 196.967 20.861 196.963 21.2151ZM210.02 17.2307V19.404H204.17V17.2307H210.02ZM205.395 15.0092H208.347V23.5876C208.347 23.7687 208.376 23.9156 208.432 24.0283C208.492 24.137 208.579 24.2155 208.692 24.2638C208.804 24.308 208.939 24.3302 209.096 24.3302C209.209 24.3302 209.327 24.3201 209.452 24.3C209.581 24.2758 209.678 24.2557 209.742 24.2396L210.189 26.3707C210.048 26.4109 209.849 26.4612 209.591 26.5216C209.337 26.582 209.034 26.6202 208.679 26.6363C207.987 26.6685 207.394 26.588 206.899 26.3948C206.408 26.1976 206.031 25.8917 205.77 25.4772C205.512 25.0627 205.387 24.5415 205.395 23.9136V15.0092ZM214.677 21.2151V26.5035H211.725V14.1398H214.581V18.9332H214.683C214.892 18.3617 215.235 17.9149 215.709 17.593C216.188 17.271 216.774 17.11 217.466 17.11C218.118 17.11 218.686 17.2549 219.169 17.5447C219.652 17.8304 220.026 18.2349 220.291 18.7581C220.561 19.2813 220.694 19.893 220.69 20.5933V26.5035H217.738V21.1729C217.742 20.6577 217.613 20.2553 217.351 19.9655C217.09 19.6757 216.722 19.5308 216.247 19.5308C215.937 19.5308 215.663 19.5992 215.426 19.7361C215.192 19.8689 215.009 20.0601 214.876 20.3096C214.748 20.5591 214.681 20.861 214.677 21.2151Z" fill="#00D845"/>
</g>
</g>
<rect x="1.07134" y="1.07421" width="227.858" height="37.8585" rx="6.92857" stroke="white" stroke-opacity="0.15" stroke-width="2.14286"/>
<defs>
<filter id="filter0_d_701_2" x="2.39926" y="0.402436" width="39.2023" height="39.202" filterUnits="userSpaceOnUse" color-interpolation-filters="sRGB">
<feFlood flood-opacity="0" result="BackgroundImageFix"/>
<feColorMatrix in="SourceAlpha" type="matrix" values="0 0 0 0 0 0 0 0 0 0 0 0 0 0 0 0 0 0 127 0" result="hardAlpha"/>
<feOffset/>
<feGaussianBlur stdDeviation="2.80014"/>
<feComposite in2="hardAlpha" operator="out"/>
<feColorMatrix type="matrix" values="0 0 0 0 0 0 0 0 0 0 0 0 0 0 0 0 0 0 0.25 0"/>
<feBlend mode="normal" in2="BackgroundImageFix" result="effect1_dropShadow_701_2"/>
<feBlend mode="normal" in="SourceGraphic" in2="effect1_dropShadow_701_2" result="shape"/>
</filter>
<filter id="filter1_d_701_2" x="36.287" y="3.78919" width="191.429" height="32.4286" filterUnits="userSpaceOnUse" color-interpolation-filters="sRGB">
<feFlood flood-opacity="0" result="BackgroundImageFix"/>
<feColorMatrix in="SourceAlpha" type="matrix" values="0 0 0 0 0 0 0 0 0 0 0 0 0 0 0 0 0 0 127 0" result="hardAlpha"/>
<feOffset/>
<feGaussianBlur stdDeviation="2.85714"/>
<feComposite in2="hardAlpha" operator="out"/>
<feColorMatrix type="matrix" values="0 0 0 0 0 0 0 0 0 0 0 0 0 0 0 0 0 0 0.25 0"/>
<feBlend mode="normal" in2="BackgroundImageFix" result="effect1_dropShadow_701_2"/>
<feBlend mode="normal" in="SourceGraphic" in2="effect1_dropShadow_701_2" result="shape"/>
</filter>
<linearGradient id="paint0_linear_701_2" x1="115.001" y1="0.0027771" x2="115.001" y2="40.0042" gradientUnits="userSpaceOnUse">
<stop stop-color="#072C13"/>
<stop offset="1" stop-color="#041C0B"/>
</linearGradient>
<clipPath id="clip0_701_2">
<rect x="-9.15527e-05" y="0.0027771" width="230.001" height="40.0014" rx="8" fill="white"/>
</clipPath>
</defs>
</svg>
